<?xml version="1.0" encoding="UTF-8" standalone="no"?>
<!DOCTYPE svg PUBLIC "-//W3C//DTD SVG 1.1//EN"
 "http://www.w3.org/Graphics/SVG/1.1/DTD/svg11.dtd">
<!-- Generated by graphviz version 2.40.1 (20161225.0304)
 -->
<!-- Title: dependency&#45;cruiser output Pages: 1 -->
<svg width="384pt" height="530pt"
 viewBox="0.00 0.00 384.00 530.00" xmlns="http://www.w3.org/2000/svg" xmlns:xlink="http://www.w3.org/1999/xlink">
<g id="graph0" class="graph" transform="scale(1 1) rotate(0) translate(4 526)">
<title>dependency&#45;cruiser output</title>
<polygon fill="#ffffff" stroke="transparent" points="-4,4 -4,-526 380,-526 380,4 -4,4"/>
<g id="clust1" class="cluster">
<title>cluster_src</title>
<path fill="#ffffff" stroke="#000000" stroke-width="2" d="M20,-8C20,-8 356,-8 356,-8 362,-8 368,-14 368,-20 368,-20 368,-502 368,-502 368,-508 362,-514 356,-514 356,-514 20,-514 20,-514 14,-514 8,-508 8,-502 8,-502 8,-20 8,-20 8,-14 14,-8 20,-8"/>
<text text-anchor="middle" x="188" y="-502.8" font-family="Helvetica,sans-Serif" font-weight="bold" font-size="9.00" fill="#000000">src</text>
</g>
<g id="clust2" class="cluster">
<title>cluster_src/auth</title>
<path fill="#ffffff" stroke="#000000" stroke-width="2" d="M174,-260C174,-260 239,-260 239,-260 245,-260 251,-266 251,-272 251,-272 251,-360 251,-360 251,-366 245,-372 239,-372 239,-372 174,-372 174,-372 168,-372 162,-366 162,-360 162,-360 162,-272 162,-272 162,-266 168,-260 174,-260"/>
<text text-anchor="middle" x="206.5" y="-360.8" font-family="Helvetica,sans-Serif" font-weight="bold" font-size="9.00" fill="#000000">auth</text>
</g>
<g id="clust3" class="cluster">
<title>cluster_src/businessLogic</title>
<path fill="#ffffff" stroke="#000000" stroke-width="2" d="M179.5,-380C179.5,-380 234.5,-380 234.5,-380 240.5,-380 246.5,-386 246.5,-392 246.5,-392 246.5,-420 246.5,-420 246.5,-426 240.5,-432 234.5,-432 234.5,-432 179.5,-432 179.5,-432 173.5,-432 167.5,-426 167.5,-420 167.5,-420 167.5,-392 167.5,-392 167.5,-386 173.5,-380 179.5,-380"/>
<text text-anchor="middle" x="207" y="-420.8" font-family="Helvetica,sans-Serif" font-weight="bold" font-size="9.00" fill="#000000">businessLogic</text>
</g>
<g id="clust4" class="cluster">
<title>cluster_src/dataLayer</title>
<path fill="#ffffff" stroke="#000000" stroke-width="2" d="M274,-387C274,-387 348,-387 348,-387 354,-387 360,-393 360,-399 360,-399 360,-457 360,-457 360,-463 354,-469 348,-469 348,-469 274,-469 274,-469 268,-469 262,-463 262,-457 262,-457 262,-399 262,-399 262,-393 268,-387 274,-387"/>
<text text-anchor="middle" x="311" y="-457.8" font-family="Helvetica,sans-Serif" font-weight="bold" font-size="9.00" fill="#000000">dataLayer</text>
</g>
<g id="clust5" class="cluster">
<title>cluster_src/lambda</title>
<path fill="#ffffff" stroke="#000000" stroke-width="2" d="M28,-196C28,-196 140,-196 140,-196 146,-196 152,-202 152,-208 152,-208 152,-476 152,-476 152,-482 146,-488 140,-488 140,-488 28,-488 28,-488 22,-488 16,-482 16,-476 16,-476 16,-208 16,-208 16,-202 22,-196 28,-196"/>
<text text-anchor="middle" x="84" y="-476.8" font-family="Helvetica,sans-Serif" font-weight="bold" font-size="9.00" fill="#000000">lambda</text>
</g>
<g id="clust6" class="cluster">
<title>cluster_src/lambda/auth</title>
<path fill="#ffffff" stroke="#000000" stroke-width="2" d="M42.5,-204C42.5,-204 125.5,-204 125.5,-204 131.5,-204 137.5,-210 137.5,-216 137.5,-216 137.5,-244 137.5,-244 137.5,-250 131.5,-256 125.5,-256 125.5,-256 42.5,-256 42.5,-256 36.5,-256 30.5,-250 30.5,-244 30.5,-244 30.5,-216 30.5,-216 30.5,-210 36.5,-204 42.5,-204"/>
<text text-anchor="middle" x="84" y="-244.8" font-family="Helvetica,sans-Serif" font-weight="bold" font-size="9.00" fill="#000000">auth</text>
</g>
<g id="clust7" class="cluster">
<title>cluster_src/lambda/http</title>
<path fill="#ffffff" stroke="#000000" stroke-width="2" d="M36,-290C36,-290 132,-290 132,-290 138,-290 144,-296 144,-302 144,-302 144,-450 144,-450 144,-456 138,-462 132,-462 132,-462 36,-462 36,-462 30,-462 24,-456 24,-450 24,-450 24,-302 24,-302 24,-296 30,-290 36,-290"/>
<text text-anchor="middle" x="84" y="-450.8" font-family="Helvetica,sans-Serif" font-weight="bold" font-size="9.00" fill="#000000">http</text>
</g>
<g id="clust8" class="cluster">
<title>cluster_src/models</title>
<path fill="#ffffff" stroke="#000000" stroke-width="2" d="M49.5,-106C49.5,-106 118.5,-106 118.5,-106 124.5,-106 130.5,-112 130.5,-118 130.5,-118 130.5,-176 130.5,-176 130.5,-182 124.5,-188 118.5,-188 118.5,-188 49.5,-188 49.5,-188 43.5,-188 37.5,-182 37.5,-176 37.5,-176 37.5,-118 37.5,-118 37.5,-112 43.5,-106 49.5,-106"/>
<text text-anchor="middle" x="84" y="-176.8" font-family="Helvetica,sans-Serif" font-weight="bold" font-size="9.00" fill="#000000">models</text>
</g>
<g id="clust9" class="cluster">
<title>cluster_src/requests</title>
<path fill="#ffffff" stroke="#000000" stroke-width="2" d="M32.5,-16C32.5,-16 135.5,-16 135.5,-16 141.5,-16 147.5,-22 147.5,-28 147.5,-28 147.5,-86 147.5,-86 147.5,-92 141.5,-98 135.5,-98 135.5,-98 32.5,-98 32.5,-98 26.5,-98 20.5,-92 20.5,-86 20.5,-86 20.5,-28 20.5,-28 20.5,-22 26.5,-16 32.5,-16"/>
<text text-anchor="middle" x="84" y="-86.8" font-family="Helvetica,sans-Serif" font-weight="bold" font-size="9.00" fill="#000000">requests</text>
</g>
<g id="clust10" class="cluster">
<title>cluster_src/utils</title>
<path fill="#ffffff" stroke="#000000" stroke-width="2" d="M183.5,-200C183.5,-200 229.5,-200 229.5,-200 235.5,-200 241.5,-206 241.5,-212 241.5,-212 241.5,-240 241.5,-240 241.5,-246 235.5,-252 229.5,-252 229.5,-252 183.5,-252 183.5,-252 177.5,-252 171.5,-246 171.5,-240 171.5,-240 171.5,-212 171.5,-212 171.5,-206 177.5,-200 183.5,-200"/>
<text text-anchor="middle" x="206.5" y="-240.8" font-family="Helvetica,sans-Serif" font-weight="bold" font-size="9.00" fill="#000000">utils</text>
</g>
<!-- src/auth/Jwt.ts -->
<g id="node1" class="node">
<title>src/auth/Jwt.ts</title>
<g id="a_node1"><a xlink:href="src/auth/Jwt.ts" xlink:title="Jwt.ts">
<path fill="#ccffcc" stroke="#000000" d="M227.5,-346C227.5,-346 185.5,-346 185.5,-346 182.5,-346 179.5,-343 179.5,-340 179.5,-340 179.5,-334 179.5,-334 179.5,-331 182.5,-328 185.5,-328 185.5,-328 227.5,-328 227.5,-328 230.5,-328 233.5,-331 233.5,-334 233.5,-334 233.5,-340 233.5,-340 233.5,-343 230.5,-346 227.5,-346"/>
<text text-anchor="middle" x="206.5" y="-334.8" font-family="Helvetica,sans-Serif" font-size="9.00" fill="#000000">Jwt.ts</text>
</a>
</g>
</g>
<!-- src/auth/JwtPayload.ts -->
<g id="node2" class="node">
<title>src/auth/JwtPayload.ts</title>
<g id="a_node2"><a xlink:href="src/auth/JwtPayload.ts" xlink:title="JwtPayload.ts">
<path fill="#ccffcc" stroke="#000000" d="M237,-316C237,-316 176,-316 176,-316 173,-316 170,-313 170,-310 170,-310 170,-304 170,-304 170,-301 173,-298 176,-298 176,-298 237,-298 237,-298 240,-298 243,-301 243,-304 243,-304 243,-310 243,-310 243,-313 240,-316 237,-316"/>
<text text-anchor="middle" x="206.5" y="-304.8" font-family="Helvetica,sans-Serif" font-size="9.00" fill="#000000">JwtPayload.ts</text>
</a>
</g>
</g>
<!-- src/auth/utils.ts -->
<g id="node3" class="node">
<title>src/auth/utils.ts</title>
<g id="a_node3"><a xlink:href="src/auth/utils.ts" xlink:title="utils.ts">
<path fill="#ddfeff" stroke="#000000" d="M227.5,-286C227.5,-286 185.5,-286 185.5,-286 182.5,-286 179.5,-283 179.5,-280 179.5,-280 179.5,-274 179.5,-274 179.5,-271 182.5,-268 185.5,-268 185.5,-268 227.5,-268 227.5,-268 230.5,-268 233.5,-271 233.5,-274 233.5,-274 233.5,-280 233.5,-280 233.5,-283 230.5,-286 227.5,-286"/>
<text text-anchor="middle" x="206.5" y="-274.8" font-family="Helvetica,sans-Serif" font-size="9.00" fill="#000000">utils.ts</text>
</a>
</g>
</g>
<!-- src/businessLogic/todos.ts -->
<g id="node4" class="node">
<title>src/businessLogic/todos.ts</title>
<g id="a_node4"><a xlink:href="src/businessLogic/todos.ts" xlink:title="todos.ts">
<path fill="#ddfeff" stroke="#000000" d="M227.5,-406C227.5,-406 185.5,-406 185.5,-406 182.5,-406 179.5,-403 179.5,-400 179.5,-400 179.5,-394 179.5,-394 179.5,-391 182.5,-388 185.5,-388 185.5,-388 227.5,-388 227.5,-388 230.5,-388 233.5,-391 233.5,-394 233.5,-394 233.5,-400 233.5,-400 233.5,-403 230.5,-406 227.5,-406"/>
<text text-anchor="middle" x="206.5" y="-394.8" font-family="Helvetica,sans-Serif" font-size="9.00" fill="#000000">todos.ts</text>
</a>
</g>
</g>
<!-- src/dataLayer/todosAccess.ts -->
<g id="node6" class="node">
<title>src/dataLayer/todosAccess.ts</title>
<g id="a_node6"><a xlink:href="src/dataLayer/todosAccess.ts" xlink:title="todosAccess.ts">
<path fill="#ddfeff" stroke="#000000" d="M343.5,-413C343.5,-413 278.5,-413 278.5,-413 275.5,-413 272.5,-410 272.5,-407 272.5,-407 272.5,-401 272.5,-401 272.5,-398 275.5,-395 278.5,-395 278.5,-395 343.5,-395 343.5,-395 346.5,-395 349.5,-398 349.5,-401 349.5,-401 349.5,-407 349.5,-407 349.5,-410 346.5,-413 343.5,-413"/>
<text text-anchor="middle" x="311" y="-401.8" font-family="Helvetica,sans-Serif" font-size="9.00" fill="#000000">todosAccess.ts</text>
</a>
</g>
</g>
<!-- src/businessLogic/todos.ts&#45;&gt;src/dataLayer/todosAccess.ts -->
<g id="edge1" class="edge">
<title>src/businessLogic/todos.ts&#45;&gt;src/dataLayer/todosAccess.ts</title>
<path fill="none" stroke="#000000" stroke-width="2" stroke-opacity="0.200000" d="M233.6833,-398.8209C243.5822,-399.484 255.0542,-400.2524 266.0817,-400.9911"/>
<polygon fill="#000000" fill-opacity="0.200000" stroke="#000000" stroke-width="2" stroke-opacity="0.200000" points="266.0226,-403.0918 272.1496,-401.3976 266.3034,-398.9012 266.0226,-403.0918"/>
</g>
<!-- src/dataLayer/bucketAccess.ts -->
<g id="node5" class="node">
<title>src/dataLayer/bucketAccess.ts</title>
<g id="a_node5"><a xlink:href="src/dataLayer/bucketAccess.ts" xlink:title="bucketAccess.ts">
<path fill="#ddfeff" stroke="#000000" d="M346,-443C346,-443 276,-443 276,-443 273,-443 270,-440 270,-437 270,-437 270,-431 270,-431 270,-428 273,-425 276,-425 276,-425 346,-425 346,-425 349,-425 352,-428 352,-431 352,-431 352,-437 352,-437 352,-440 349,-443 346,-443"/>
<text text-anchor="middle" x="311" y="-431.8" font-family="Helvetica,sans-Serif" font-size="9.00" fill="#000000">bucketAccess.ts</text>
</a>
</g>
</g>
<!-- src/lambda/auth/auth0Authorizer.ts -->
<g id="node7" class="node">
<title>src/lambda/auth/auth0Authorizer.ts</title>
<g id="a_node7"><a xlink:href="src/lambda/auth/auth0Authorizer.ts" xlink:title="auth0Authorizer.ts">
<path fill="#ddfeff" stroke="#000000" d="M123.5,-230C123.5,-230 44.5,-230 44.5,-230 41.5,-230 38.5,-227 38.5,-224 38.5,-224 38.5,-218 38.5,-218 38.5,-215 41.5,-212 44.5,-212 44.5,-212 123.5,-212 123.5,-212 126.5,-212 129.5,-215 129.5,-218 129.5,-218 129.5,-224 129.5,-224 129.5,-227 126.5,-230 123.5,-230"/>
<text text-anchor="middle" x="84" y="-218.8" font-family="Helvetica,sans-Serif" font-size="9.00" fill="#000000">auth0Authorizer.ts</text>
</a>
</g>
</g>
<!-- src/utils/logger.ts -->
<g id="node18" class="node">
<title>src/utils/logger.ts</title>
<g id="a_node18"><a xlink:href="src/utils/logger.ts" xlink:title="logger.ts">
<path fill="#ddfeff" stroke="#000000" d="M227.5,-226C227.5,-226 185.5,-226 185.5,-226 182.5,-226 179.5,-223 179.5,-220 179.5,-220 179.5,-214 179.5,-214 179.5,-211 182.5,-208 185.5,-208 185.5,-208 227.5,-208 227.5,-208 230.5,-208 233.5,-211 233.5,-214 233.5,-214 233.5,-220 233.5,-220 233.5,-223 230.5,-226 227.5,-226"/>
<text text-anchor="middle" x="206.5" y="-214.8" font-family="Helvetica,sans-Serif" font-size="9.00" fill="#000000">logger.ts</text>
</a>
</g>
</g>
<!-- src/lambda/auth/auth0Authorizer.ts&#45;&gt;src/utils/logger.ts -->
<g id="edge2" class="edge">
<title>src/lambda/auth/auth0Authorizer.ts&#45;&gt;src/utils/logger.ts</title>
<path fill="none" stroke="#000000" stroke-width="2" stroke-opacity="0.200000" d="M129.6145,-219.5105C144.126,-219.0367 159.8924,-218.5219 173.3488,-218.0825"/>
<polygon fill="#000000" fill-opacity="0.200000" stroke="#000000" stroke-width="2" stroke-opacity="0.200000" points="173.4278,-220.1811 179.356,-217.8863 173.2907,-215.9834 173.4278,-220.1811"/>
</g>
<!-- src/lambda/http/createTodo.ts -->
<g id="node8" class="node">
<title>src/lambda/http/createTodo.ts</title>
<g id="a_node8"><a xlink:href="src/lambda/http/createTodo.ts" xlink:title="createTodo.ts">
<path fill="#ddfeff" stroke="#000000" d="M114,-406C114,-406 54,-406 54,-406 51,-406 48,-403 48,-400 48,-400 48,-394 48,-394 48,-391 51,-388 54,-388 54,-388 114,-388 114,-388 117,-388 120,-391 120,-394 120,-394 120,-400 120,-400 120,-403 117,-406 114,-406"/>
<text text-anchor="middle" x="84" y="-394.8" font-family="Helvetica,sans-Serif" font-size="9.00" fill="#000000">createTodo.ts</text>
</a>
</g>
</g>
<!-- src/lambda/http/createTodo.ts&#45;&gt;src/auth/utils.ts -->
<g id="edge3" class="edge">
<title>src/lambda/http/createTodo.ts&#45;&gt;src/auth/utils.ts</title>
<path fill="none" stroke="#000000" stroke-width="2" stroke-opacity="0.200000" d="M120.3294,-397.0384C132.0171,-395.1612 143.9992,-390.9013 152,-382 178.904,-352.0679 136.7509,-323.3406 162,-292 165.0209,-288.2503 169.0166,-285.4323 173.3764,-283.3158"/>
<polygon fill="#000000" fill-opacity="0.200000" stroke="#000000" stroke-width="2" stroke-opacity="0.200000" points="174.2915,-285.2104 179.0477,-280.9927 172.6994,-281.3238 174.2915,-285.2104"/>
</g>
<!-- src/lambda/http/createTodo.ts&#45;&gt;src/businessLogic/todos.ts -->
<g id="edge4" class="edge">
<title>src/lambda/http/createTodo.ts&#45;&gt;src/businessLogic/todos.ts</title>
<path fill="none" stroke="#000000" stroke-width="2" stroke-opacity="0.200000" d="M120.0915,-397C136.7891,-397 156.506,-397 172.8863,-397"/>
<polygon fill="#000000" fill-opacity="0.200000" stroke="#000000" stroke-width="2" stroke-opacity="0.200000" points="173.2182,-399.1001 179.2182,-397 173.2182,-394.9001 173.2182,-399.1001"/>
</g>
<!-- src/lambda/http/deleteTodo.ts -->
<g id="node9" class="node">
<title>src/lambda/http/deleteTodo.ts</title>
<g id="a_node9"><a xlink:href="src/lambda/http/deleteTodo.ts" xlink:title="deleteTodo.ts">
<path fill="#ddfeff" stroke="#000000" d="M114,-376C114,-376 54,-376 54,-376 51,-376 48,-373 48,-370 48,-370 48,-364 48,-364 48,-361 51,-358 54,-358 54,-358 114,-358 114,-358 117,-358 120,-361 120,-364 120,-364 120,-370 120,-370 120,-373 117,-376 114,-376"/>
<text text-anchor="middle" x="84" y="-364.8" font-family="Helvetica,sans-Serif" font-size="9.00" fill="#000000">deleteTodo.ts</text>
</a>
</g>
</g>
<!-- src/lambda/http/deleteTodo.ts&#45;&gt;src/auth/utils.ts -->
<g id="edge5" class="edge">
<title>src/lambda/http/deleteTodo.ts&#45;&gt;src/auth/utils.ts</title>
<path fill="none" stroke="#000000" stroke-width="2" stroke-opacity="0.200000" d="M120.0591,-366.7888C131.7233,-364.8898 143.7597,-360.68 152,-352 170.6132,-332.3936 144.4722,-312.5825 162,-292 165.122,-288.3339 169.172,-285.5611 173.5558,-283.4644"/>
<polygon fill="#000000" fill-opacity="0.200000" stroke="#000000" stroke-width="2" stroke-opacity="0.200000" points="174.4741,-285.3581 179.2422,-281.1539 172.893,-281.467 174.4741,-285.3581"/>
</g>
<!-- src/lambda/http/deleteTodo.ts&#45;&gt;src/businessLogic/todos.ts -->
<g id="edge6" class="edge">
<title>src/lambda/http/deleteTodo.ts&#45;&gt;src/businessLogic/todos.ts</title>
<path fill="none" stroke="#000000" stroke-width="2" stroke-opacity="0.200000" d="M120.077,-374.596C130.4113,-376.8699 141.6735,-379.4418 152,-382 158.9954,-383.733 166.4623,-385.7061 173.5544,-387.6389"/>
<polygon fill="#000000" fill-opacity="0.200000" stroke="#000000" stroke-width="2" stroke-opacity="0.200000" points="173.063,-389.6817 179.405,-389.2469 174.1761,-385.6319 173.063,-389.6817"/>
</g>
<!-- src/lambda/http/generateUploadUrl.ts -->
<g id="node10" class="node">
<title>src/lambda/http/generateUploadUrl.ts</title>
<g id="a_node10"><a xlink:href="src/lambda/http/generateUploadUrl.ts" xlink:title="generateUploadUrl.ts">
<path fill="#ddfeff" stroke="#000000" d="M130,-436C130,-436 38,-436 38,-436 35,-436 32,-433 32,-430 32,-430 32,-424 32,-424 32,-421 35,-418 38,-418 38,-418 130,-418 130,-418 133,-418 136,-421 136,-424 136,-424 136,-430 136,-430 136,-433 133,-436 130,-436"/>
<text text-anchor="middle" x="84" y="-424.8" font-family="Helvetica,sans-Serif" font-size="9.00" fill="#000000">generateUploadUrl.ts</text>
</a>
</g>
</g>
<!-- src/lambda/http/generateUploadUrl.ts&#45;&gt;src/dataLayer/bucketAccess.ts -->
<g id="edge7" class="edge">
<title>src/lambda/http/generateUploadUrl.ts&#45;&gt;src/dataLayer/bucketAccess.ts</title>
<path fill="none" stroke="#000000" stroke-width="2" stroke-opacity="0.200000" d="M136.3895,-433.1155C144.9376,-433.8996 153.7071,-434.5758 162,-435 201.5039,-437.0205 211.4458,-435.3296 251,-435 255.0597,-434.9662 259.2737,-434.9195 263.501,-434.8646"/>
<polygon fill="#000000" fill-opacity="0.200000" stroke="#000000" stroke-width="2" stroke-opacity="0.200000" points="263.7173,-436.9619 269.6876,-434.7789 263.659,-432.7623 263.7173,-436.9619"/>
</g>
<!-- src/lambda/http/getTodos.ts -->
<g id="node11" class="node">
<title>src/lambda/http/getTodos.ts</title>
<g id="a_node11"><a xlink:href="src/lambda/http/getTodos.ts" xlink:title="getTodos.ts">
<path fill="#ddfeff" stroke="#000000" d="M110,-316C110,-316 58,-316 58,-316 55,-316 52,-313 52,-310 52,-310 52,-304 52,-304 52,-301 55,-298 58,-298 58,-298 110,-298 110,-298 113,-298 116,-301 116,-304 116,-304 116,-310 116,-310 116,-313 113,-316 110,-316"/>
<text text-anchor="middle" x="84" y="-304.8" font-family="Helvetica,sans-Serif" font-size="9.00" fill="#000000">getTodos.ts</text>
</a>
</g>
</g>
<!-- src/lambda/http/getTodos.ts&#45;&gt;src/auth/utils.ts -->
<g id="edge8" class="edge">
<title>src/lambda/http/getTodos.ts&#45;&gt;src/auth/utils.ts</title>
<path fill="none" stroke="#000000" stroke-width="2" stroke-opacity="0.200000" d="M116.3337,-301.5937C127.6735,-299.4932 140.458,-296.8935 152,-294 159.0602,-292.2301 166.5547,-290.0766 173.6532,-287.9054"/>
<polygon fill="#000000" fill-opacity="0.200000" stroke="#000000" stroke-width="2" stroke-opacity="0.200000" points="174.3992,-289.8727 179.5047,-286.0854 173.1517,-285.8622 174.3992,-289.8727"/>
</g>
<!-- src/lambda/http/getTodos.ts&#45;&gt;src/businessLogic/todos.ts -->
<g id="edge9" class="edge">
<title>src/lambda/http/getTodos.ts&#45;&gt;src/businessLogic/todos.ts</title>
<path fill="none" stroke="#000000" stroke-width="2" stroke-opacity="0.200000" d="M116.0907,-306.7567C128.8849,-308.3419 142.7418,-312.4538 152,-322 168.6887,-339.2077 147.5107,-355.9035 162,-375 165.1451,-379.1452 169.2818,-382.5588 173.7675,-385.3554"/>
<polygon fill="#000000" fill-opacity="0.200000" stroke="#000000" stroke-width="2" stroke-opacity="0.200000" points="172.8923,-387.2718 179.1551,-388.3617 174.939,-383.6042 172.8923,-387.2718"/>
</g>
<!-- src/lambda/http/updateTodo.ts -->
<g id="node12" class="node">
<title>src/lambda/http/updateTodo.ts</title>
<g id="a_node12"><a xlink:href="src/lambda/http/updateTodo.ts" xlink:title="updateTodo.ts">
<path fill="#ddfeff" stroke="#000000" d="M115.5,-346C115.5,-346 52.5,-346 52.5,-346 49.5,-346 46.5,-343 46.5,-340 46.5,-340 46.5,-334 46.5,-334 46.5,-331 49.5,-328 52.5,-328 52.5,-328 115.5,-328 115.5,-328 118.5,-328 121.5,-331 121.5,-334 121.5,-334 121.5,-340 121.5,-340 121.5,-343 118.5,-346 115.5,-346"/>
<text text-anchor="middle" x="84" y="-334.8" font-family="Helvetica,sans-Serif" font-size="9.00" fill="#000000">updateTodo.ts</text>
</a>
</g>
</g>
<!-- src/lambda/http/updateTodo.ts&#45;&gt;src/auth/utils.ts -->
<g id="edge10" class="edge">
<title>src/lambda/http/updateTodo.ts&#45;&gt;src/auth/utils.ts</title>
<path fill="none" stroke="#000000" stroke-width="2" stroke-opacity="0.200000" d="M121.7895,-335.5826C132.6281,-333.473 143.7349,-329.4425 152,-322 162.4442,-312.5952 152.0787,-301.9548 162,-292 165.3182,-288.6706 169.399,-286.08 173.7305,-284.0644"/>
<polygon fill="#000000" fill-opacity="0.200000" stroke="#000000" stroke-width="2" stroke-opacity="0.200000" points="174.538,-286.0031 179.3127,-281.8063 172.9631,-282.1096 174.538,-286.0031"/>
</g>
<!-- src/lambda/http/updateTodo.ts&#45;&gt;src/businessLogic/todos.ts -->
<g id="edge11" class="edge">
<title>src/lambda/http/updateTodo.ts&#45;&gt;src/businessLogic/todos.ts</title>
<path fill="none" stroke="#000000" stroke-width="2" stroke-opacity="0.200000" d="M121.7477,-338.9459C132.4603,-341.0898 143.5075,-345.0067 152,-352 160.6046,-359.0857 154.3137,-366.9274 162,-375 165.6734,-378.8581 170.1673,-382.1356 174.8713,-384.8881"/>
<polygon fill="#000000" fill-opacity="0.200000" stroke="#000000" stroke-width="2" stroke-opacity="0.200000" points="174.173,-386.8965 180.4532,-387.8814 176.1579,-383.1951 174.173,-386.8965"/>
</g>
<!-- src/lambda/utils.ts -->
<g id="node13" class="node">
<title>src/lambda/utils.ts</title>
<g id="a_node13"><a xlink:href="src/lambda/utils.ts" xlink:title="utils.ts">
<path fill="#ddfeff" stroke="#000000" d="M105,-282C105,-282 63,-282 63,-282 60,-282 57,-279 57,-276 57,-276 57,-270 57,-270 57,-267 60,-264 63,-264 63,-264 105,-264 105,-264 108,-264 111,-267 111,-270 111,-270 111,-276 111,-276 111,-279 108,-282 105,-282"/>
<text text-anchor="middle" x="84" y="-270.8" font-family="Helvetica,sans-Serif" font-size="9.00" fill="#000000">utils.ts</text>
</a>
</g>
</g>
<!-- src/lambda/utils.ts&#45;&gt;src/auth/utils.ts -->
<g id="edge12" class="edge">
<title>src/lambda/utils.ts&#45;&gt;src/auth/utils.ts</title>
<path fill="none" stroke="#000000" stroke-width="2" stroke-opacity="0.200000" d="M111.1867,-273.8877C129.5046,-274.4859 153.7825,-275.2786 173.251,-275.9143"/>
<polygon fill="#000000" fill-opacity="0.200000" stroke="#000000" stroke-width="2" stroke-opacity="0.200000" points="173.3239,-278.0177 179.3893,-276.1148 173.461,-273.82 173.3239,-278.0177"/>
</g>
<!-- src/models/TodoItem.ts -->
<g id="node14" class="node">
<title>src/models/TodoItem.ts</title>
<g id="a_node14"><a xlink:href="src/models/TodoItem.ts" xlink:title="TodoItem.ts">
<path fill="#ccffcc" stroke="#000000" d="M110,-162C110,-162 58,-162 58,-162 55,-162 52,-159 52,-156 52,-156 52,-150 52,-150 52,-147 55,-144 58,-144 58,-144 110,-144 110,-144 113,-144 116,-147 116,-150 116,-150 116,-156 116,-156 116,-159 113,-162 110,-162"/>
<text text-anchor="middle" x="84" y="-150.8" font-family="Helvetica,sans-Serif" font-size="9.00" fill="#000000">TodoItem.ts</text>
</a>
</g>
</g>
<!-- src/models/TodoUpdate.ts -->
<g id="node15" class="node">
<title>src/models/TodoUpdate.ts</title>
<g id="a_node15"><a xlink:href="src/models/TodoUpdate.ts" xlink:title="TodoUpdate.ts">
<path fill="#ccffcc" stroke="#000000" d="M116.5,-132C116.5,-132 51.5,-132 51.5,-132 48.5,-132 45.5,-129 45.5,-126 45.5,-126 45.5,-120 45.5,-120 45.5,-117 48.5,-114 51.5,-114 51.5,-114 116.5,-114 116.5,-114 119.5,-114 122.5,-117 122.5,-120 122.5,-120 122.5,-126 122.5,-126 122.5,-129 119.5,-132 116.5,-132"/>
<text text-anchor="middle" x="84" y="-120.8" font-family="Helvetica,sans-Serif" font-size="9.00" fill="#000000">TodoUpdate.ts</text>
</a>
</g>
</g>
<!-- src/requests/CreateTodoRequest.ts -->
<g id="node16" class="node">
<title>src/requests/CreateTodoRequest.ts</title>
<g id="a_node16"><a xlink:href="src/requests/CreateTodoRequest.ts" xlink:title="CreateTodoRequest.ts">
<path fill="#ccffcc" stroke="#000000" d="M132.5,-72C132.5,-72 35.5,-72 35.5,-72 32.5,-72 29.5,-69 29.5,-66 29.5,-66 29.5,-60 29.5,-60 29.5,-57 32.5,-54 35.5,-54 35.5,-54 132.5,-54 132.5,-54 135.5,-54 138.5,-57 138.5,-60 138.5,-60 138.5,-66 138.5,-66 138.5,-69 135.5,-72 132.5,-72"/>
<text text-anchor="middle" x="84" y="-60.8" font-family="Helvetica,sans-Serif" font-size="9.00" fill="#000000">CreateTodoRequest.ts</text>
</a>
</g>
</g>
<!-- src/requests/UpdateTodoRequest.ts -->
<g id="node17" class="node">
<title>src/requests/UpdateTodoRequest.ts</title>
<g id="a_node17"><a xlink:href="src/requests/UpdateTodoRequest.ts" xlink:title="UpdateTodoRequest.ts">
<path fill="#ccffcc" stroke="#000000" d="M133.5,-42C133.5,-42 34.5,-42 34.5,-42 31.5,-42 28.5,-39 28.5,-36 28.5,-36 28.5,-30 28.5,-30 28.5,-27 31.5,-24 34.5,-24 34.5,-24 133.5,-24 133.5,-24 136.5,-24 139.5,-27 139.5,-30 139.5,-30 139.5,-36 139.5,-36 139.5,-39 136.5,-42 133.5,-42"/>
<text text-anchor="middle" x="84" y="-30.8" font-family="Helvetica,sans-Serif" font-size="9.00" fill="#000000">UpdateTodoRequest.ts</text>
</a>
</g>
</g>
</g>
</svg>
