<?xml version="1.0" encoding="UTF-8" standalone="no"?>
<!DOCTYPE svg PUBLIC "-//W3C//DTD SVG 1.1//EN"
 "http://www.w3.org/Graphics/SVG/1.1/DTD/svg11.dtd">
<!-- Generated by graphviz version 2.40.1 (20161225.0304)
 -->
<!-- Title: dependency&#45;cruiser output Pages: 1 -->
<svg width="582pt" height="240pt"
 viewBox="0.00 0.00 582.00 240.00" xmlns="http://www.w3.org/2000/svg" xmlns:xlink="http://www.w3.org/1999/xlink">
<g id="graph0" class="graph" transform="scale(1 1) rotate(0) translate(4 236)">
<title>dependency&#45;cruiser output</title>
<polygon fill="#ffffff" stroke="transparent" points="-4,4 -4,-236 578,-236 578,4 -4,4"/>
<g id="clust1" class="cluster">
<title>cluster_src</title>
<path fill="#ffffff" stroke="#000000" stroke-width="2" d="M20,-8C20,-8 554,-8 554,-8 560,-8 566,-14 566,-20 566,-20 566,-212 566,-212 566,-218 560,-224 554,-224 554,-224 20,-224 20,-224 14,-224 8,-218 8,-212 8,-212 8,-20 8,-20 8,-14 14,-8 20,-8"/>
<text text-anchor="middle" x="287" y="-212.8" font-family="Helvetica,sans-Serif" font-weight="bold" font-size="9.00" fill="#000000">src</text>
</g>
<g id="clust2" class="cluster">
<title>cluster_src/api</title>
<path fill="#ffffff" stroke="#000000" stroke-width="2" d="M428,-106C428,-106 484,-106 484,-106 490,-106 496,-112 496,-118 496,-118 496,-146 496,-146 496,-152 490,-158 484,-158 484,-158 428,-158 428,-158 422,-158 416,-152 416,-146 416,-146 416,-118 416,-118 416,-112 422,-106 428,-106"/>
<text text-anchor="middle" x="456" y="-146.8" font-family="Helvetica,sans-Serif" font-weight="bold" font-size="9.00" fill="#000000">api</text>
</g>
<g id="clust3" class="cluster">
<title>cluster_src/auth</title>
<path fill="#ffffff" stroke="#000000" stroke-width="2" d="M255,-140C255,-140 301,-140 301,-140 307,-140 313,-146 313,-152 313,-152 313,-180 313,-180 313,-186 307,-192 301,-192 301,-192 255,-192 255,-192 249,-192 243,-186 243,-180 243,-180 243,-152 243,-152 243,-146 249,-140 255,-140"/>
<text text-anchor="middle" x="278" y="-180.8" font-family="Helvetica,sans-Serif" font-weight="bold" font-size="9.00" fill="#000000">auth</text>
</g>
<g id="clust4" class="cluster">
<title>cluster_src/components</title>
<path fill="#ffffff" stroke="#000000" stroke-width="2" d="M333,-16C333,-16 396,-16 396,-16 402,-16 408,-22 408,-28 408,-28 408,-176 408,-176 408,-182 402,-188 396,-188 396,-188 333,-188 333,-188 327,-188 321,-182 321,-176 321,-176 321,-28 321,-28 321,-22 327,-16 333,-16"/>
<text text-anchor="middle" x="364.5" y="-176.8" font-family="Helvetica,sans-Serif" font-weight="bold" font-size="9.00" fill="#000000">components</text>
</g>
<g id="clust5" class="cluster">
<title>cluster_src/types</title>
<path fill="#ffffff" stroke="#000000" stroke-width="2" d="M28,-86C28,-86 131,-86 131,-86 137,-86 143,-92 143,-98 143,-98 143,-186 143,-186 143,-192 137,-198 131,-198 131,-198 28,-198 28,-198 22,-198 16,-192 16,-186 16,-186 16,-98 16,-98 16,-92 22,-86 28,-86"/>
<text text-anchor="middle" x="79.5" y="-186.8" font-family="Helvetica,sans-Serif" font-weight="bold" font-size="9.00" fill="#000000">types</text>
</g>
<!-- src/App.tsx -->
<g id="node1" class="node">
<title>src/App.tsx</title>
<g id="a_node1"><a xlink:href="src/App.tsx" xlink:title="App.tsx">
<path fill="#bbfeff" stroke="#000000" d="M299,-102C299,-102 257,-102 257,-102 254,-102 251,-99 251,-96 251,-96 251,-90 251,-90 251,-87 254,-84 257,-84 257,-84 299,-84 299,-84 302,-84 305,-87 305,-90 305,-90 305,-96 305,-96 305,-99 302,-102 299,-102"/>
<text text-anchor="middle" x="278" y="-90.8" font-family="Helvetica,sans-Serif" font-size="9.00" fill="#000000">App.tsx</text>
</a>
</g>
</g>
<!-- src/components/EditTodo.tsx -->
<g id="node5" class="node">
<title>src/components/EditTodo.tsx</title>
<g id="a_node5"><a xlink:href="src/components/EditTodo.tsx" xlink:title="EditTodo.tsx">
<path fill="#bbfeff" stroke="#000000" d="M392,-132C392,-132 337,-132 337,-132 334,-132 331,-129 331,-126 331,-126 331,-120 331,-120 331,-117 334,-114 337,-114 337,-114 392,-114 392,-114 395,-114 398,-117 398,-120 398,-120 398,-126 398,-126 398,-129 395,-132 392,-132"/>
<text text-anchor="middle" x="364.5" y="-120.8" font-family="Helvetica,sans-Serif" font-size="9.00" fill="#000000">EditTodo.tsx</text>
</a>
</g>
</g>
<!-- src/App.tsx&#45;&gt;src/components/EditTodo.tsx -->
<g id="edge1" class="edge">
<title>src/App.tsx&#45;&gt;src/components/EditTodo.tsx</title>
<path fill="none" stroke="#000000" stroke-width="2" stroke-opacity="0.200000" d="M303.9166,-102.0575C309.5473,-104.0206 315.4723,-106.0828 321,-108 324.7525,-109.3015 328.6882,-110.6632 332.5944,-112.0127"/>
<polygon fill="#000000" fill-opacity="0.200000" stroke="#000000" stroke-width="2" stroke-opacity="0.200000" points="331.9147,-113.9996 338.2715,-113.9727 333.2853,-110.0295 331.9147,-113.9996"/>
</g>
<!-- src/components/LogIn.tsx -->
<g id="node6" class="node">
<title>src/components/LogIn.tsx</title>
<g id="a_node6"><a xlink:href="src/components/LogIn.tsx" xlink:title="LogIn.tsx">
<path fill="#bbfeff" stroke="#000000" d="M385.5,-102C385.5,-102 343.5,-102 343.5,-102 340.5,-102 337.5,-99 337.5,-96 337.5,-96 337.5,-90 337.5,-90 337.5,-87 340.5,-84 343.5,-84 343.5,-84 385.5,-84 385.5,-84 388.5,-84 391.5,-87 391.5,-90 391.5,-90 391.5,-96 391.5,-96 391.5,-99 388.5,-102 385.5,-102"/>
<text text-anchor="middle" x="364.5" y="-90.8" font-family="Helvetica,sans-Serif" font-size="9.00" fill="#000000">LogIn.tsx</text>
</a>
</g>
</g>
<!-- src/App.tsx&#45;&gt;src/components/LogIn.tsx -->
<g id="edge2" class="edge">
<title>src/App.tsx&#45;&gt;src/components/LogIn.tsx</title>
<path fill="none" stroke="#000000" stroke-width="2" stroke-opacity="0.200000" d="M305.3691,-93C313.4942,-93 322.4875,-93 330.9572,-93"/>
<polygon fill="#000000" fill-opacity="0.200000" stroke="#000000" stroke-width="2" stroke-opacity="0.200000" points="331.3089,-95.1001 337.3089,-93 331.3089,-90.9001 331.3089,-95.1001"/>
</g>
<!-- src/components/NotFound.tsx -->
<g id="node7" class="node">
<title>src/components/NotFound.tsx</title>
<g id="a_node7"><a xlink:href="src/components/NotFound.tsx" xlink:title="NotFound.tsx">
<path fill="#bbfeff" stroke="#000000" d="M394,-72C394,-72 335,-72 335,-72 332,-72 329,-69 329,-66 329,-66 329,-60 329,-60 329,-57 332,-54 335,-54 335,-54 394,-54 394,-54 397,-54 400,-57 400,-60 400,-60 400,-66 400,-66 400,-69 397,-72 394,-72"/>
<text text-anchor="middle" x="364.5" y="-60.8" font-family="Helvetica,sans-Serif" font-size="9.00" fill="#000000">NotFound.tsx</text>
</a>
</g>
</g>
<!-- src/App.tsx&#45;&gt;src/components/NotFound.tsx -->
<g id="edge3" class="edge">
<title>src/App.tsx&#45;&gt;src/components/NotFound.tsx</title>
<path fill="none" stroke="#000000" stroke-width="2" stroke-opacity="0.200000" d="M303.9166,-83.9425C309.5473,-81.9794 315.4723,-79.9172 321,-78 324.7525,-76.6985 328.6882,-75.3368 332.5944,-73.9873"/>
<polygon fill="#000000" fill-opacity="0.200000" stroke="#000000" stroke-width="2" stroke-opacity="0.200000" points="333.2853,-75.9705 338.2715,-72.0273 331.9147,-72.0004 333.2853,-75.9705"/>
</g>
<!-- src/components/Todos.tsx -->
<g id="node8" class="node">
<title>src/components/Todos.tsx</title>
<g id="a_node8"><a xlink:href="src/components/Todos.tsx" xlink:title="Todos.tsx">
<path fill="#bbfeff" stroke="#000000" d="M386.5,-42C386.5,-42 342.5,-42 342.5,-42 339.5,-42 336.5,-39 336.5,-36 336.5,-36 336.5,-30 336.5,-30 336.5,-27 339.5,-24 342.5,-24 342.5,-24 386.5,-24 386.5,-24 389.5,-24 392.5,-27 392.5,-30 392.5,-30 392.5,-36 392.5,-36 392.5,-39 389.5,-42 386.5,-42"/>
<text text-anchor="middle" x="364.5" y="-30.8" font-family="Helvetica,sans-Serif" font-size="9.00" fill="#000000">Todos.tsx</text>
</a>
</g>
</g>
<!-- src/App.tsx&#45;&gt;src/components/Todos.tsx -->
<g id="edge4" class="edge">
<title>src/App.tsx&#45;&gt;src/components/Todos.tsx</title>
<path fill="none" stroke="#000000" stroke-width="2" stroke-opacity="0.200000" d="M284.6078,-83.8148C292.302,-73.7282 305.8992,-57.6811 321,-48 323.9422,-46.1137 327.1493,-44.4341 330.4447,-42.9456"/>
<polygon fill="#000000" fill-opacity="0.200000" stroke="#000000" stroke-width="2" stroke-opacity="0.200000" points="331.6916,-44.7025 336.4339,-40.4692 330.0867,-40.8212 331.6916,-44.7025"/>
</g>
<!-- src/api/todos&#45;api.ts -->
<g id="node2" class="node">
<title>src/api/todos&#45;api.ts</title>
<g id="a_node2"><a xlink:href="src/api/todos-api.ts" xlink:title="todos&#45;api.ts">
<path fill="#ddfeff" stroke="#000000" d="M482,-132C482,-132 430,-132 430,-132 427,-132 424,-129 424,-126 424,-126 424,-120 424,-120 424,-117 427,-114 430,-114 430,-114 482,-114 482,-114 485,-114 488,-117 488,-120 488,-120 488,-126 488,-126 488,-129 485,-132 482,-132"/>
<text text-anchor="middle" x="456" y="-120.8" font-family="Helvetica,sans-Serif" font-size="9.00" fill="#000000">todos&#45;api.ts</text>
</a>
</g>
</g>
<!-- src/config.ts -->
<g id="node9" class="node">
<title>src/config.ts</title>
<g id="a_node9"><a xlink:href="src/config.ts" xlink:title="config.ts">
<path fill="#ddfeff" stroke="#000000" d="M552,-165C552,-165 510,-165 510,-165 507,-165 504,-162 504,-159 504,-159 504,-153 504,-153 504,-150 507,-147 510,-147 510,-147 552,-147 552,-147 555,-147 558,-150 558,-153 558,-153 558,-159 558,-159 558,-162 555,-165 552,-165"/>
<text text-anchor="middle" x="531" y="-153.8" font-family="Helvetica,sans-Serif" font-size="9.00" fill="#000000">config.ts</text>
</a>
</g>
</g>
<!-- src/api/todos&#45;api.ts&#45;&gt;src/config.ts -->
<g id="edge5" class="edge">
<title>src/api/todos&#45;api.ts&#45;&gt;src/config.ts</title>
<path fill="none" stroke="#000000" stroke-width="2" stroke-opacity="0.200000" d="M486.3891,-132.1472C489.6693,-133.3499 492.9285,-134.6405 496,-136 501.0597,-138.2395 506.3325,-141.0033 511.2042,-143.754"/>
<polygon fill="#000000" fill-opacity="0.200000" stroke="#000000" stroke-width="2" stroke-opacity="0.200000" points="510.4585,-145.7492 516.702,-146.9448 512.5668,-142.1167 510.4585,-145.7492"/>
</g>
<!-- src/auth/Auth.js -->
<g id="node3" class="node">
<title>src/auth/Auth.js</title>
<g id="a_node3"><a xlink:href="src/auth/Auth.js" xlink:title="Auth.js">
<path fill="#ffffcc" stroke="#000000" d="M299,-166C299,-166 257,-166 257,-166 254,-166 251,-163 251,-160 251,-160 251,-154 251,-154 251,-151 254,-148 257,-148 257,-148 299,-148 299,-148 302,-148 305,-151 305,-154 305,-154 305,-160 305,-160 305,-163 302,-166 299,-166"/>
<text text-anchor="middle" x="278" y="-154.8" font-family="Helvetica,sans-Serif" font-size="9.00" fill="#000000">Auth.js</text>
</a>
</g>
</g>
<!-- src/auth/Auth.js&#45;&gt;src/config.ts -->
<g id="edge6" class="edge">
<title>src/auth/Auth.js&#45;&gt;src/config.ts</title>
<path fill="none" stroke="#000000" stroke-width="2" stroke-opacity="0.200000" d="M286.1384,-166.2795C294.0766,-174.5664 306.9765,-186.1256 321,-191 385.8879,-213.5541 467.2469,-184.9107 506.9583,-167.5218"/>
<polygon fill="#000000" fill-opacity="0.200000" stroke="#000000" stroke-width="2" stroke-opacity="0.200000" points="507.8848,-169.408 512.5083,-165.0453 506.1733,-165.5726 507.8848,-169.408"/>
</g>
<!-- src/components/Callback.tsx -->
<g id="node4" class="node">
<title>src/components/Callback.tsx</title>
<g id="a_node4"><a xlink:href="src/components/Callback.tsx" xlink:title="Callback.tsx">
<path fill="#bbfeff" stroke="#000000" d="M391.5,-162C391.5,-162 337.5,-162 337.5,-162 334.5,-162 331.5,-159 331.5,-156 331.5,-156 331.5,-150 331.5,-150 331.5,-147 334.5,-144 337.5,-144 337.5,-144 391.5,-144 391.5,-144 394.5,-144 397.5,-147 397.5,-150 397.5,-150 397.5,-156 397.5,-156 397.5,-159 394.5,-162 391.5,-162"/>
<text text-anchor="middle" x="364.5" y="-150.8" font-family="Helvetica,sans-Serif" font-size="9.00" fill="#000000">Callback.tsx</text>
</a>
</g>
</g>
<!-- src/components/EditTodo.tsx&#45;&gt;src/api/todos&#45;api.ts -->
<g id="edge7" class="edge">
<title>src/components/EditTodo.tsx&#45;&gt;src/api/todos&#45;api.ts</title>
<path fill="none" stroke="#000000" stroke-width="2" stroke-opacity="0.200000" d="M398.0517,-123C404.4017,-123 411.0899,-123 417.5764,-123"/>
<polygon fill="#000000" fill-opacity="0.200000" stroke="#000000" stroke-width="2" stroke-opacity="0.200000" points="417.9757,-125.1001 423.9757,-123 417.9756,-120.9001 417.9757,-125.1001"/>
</g>
<!-- src/components/Todos.tsx&#45;&gt;src/api/todos&#45;api.ts -->
<g id="edge8" class="edge">
<title>src/components/Todos.tsx&#45;&gt;src/api/todos&#45;api.ts</title>
<path fill="none" stroke="#000000" stroke-width="2" stroke-opacity="0.200000" d="M392.6079,-39.595C398.0618,-41.7001 403.4802,-44.4429 408,-48 428.3406,-64.0083 442.6072,-91.1599 450.0439,-108.0301"/>
<polygon fill="#000000" fill-opacity="0.200000" stroke="#000000" stroke-width="2" stroke-opacity="0.200000" points="448.192,-109.0416 452.4733,-113.7406 452.0568,-107.3973 448.192,-109.0416"/>
</g>
<!-- src/index.css -->
<g id="node10" class="node">
<title>src/index.css</title>
<g id="a_node10"><a xlink:href="src/index.css" xlink:title="index.css">
<path fill="#ffffcc" stroke="#000000" d="M214.5,-75C214.5,-75 171.5,-75 171.5,-75 168.5,-75 165.5,-72 165.5,-69 165.5,-69 165.5,-63 165.5,-63 165.5,-60 168.5,-57 171.5,-57 171.5,-57 214.5,-57 214.5,-57 217.5,-57 220.5,-60 220.5,-63 220.5,-63 220.5,-69 220.5,-69 220.5,-72 217.5,-75 214.5,-75"/>
<text text-anchor="middle" x="193" y="-63.8" font-family="Helvetica,sans-Serif" font-size="9.00" fill="#000000">index.css</text>
</a>
</g>
</g>
<!-- src/index.tsx -->
<g id="node11" class="node">
<title>src/index.tsx</title>
<g id="a_node11"><a xlink:href="src/index.tsx" xlink:title="index.tsx">
<path fill="#bbfeff" stroke="#000000" d="M100.5,-78C100.5,-78 58.5,-78 58.5,-78 55.5,-78 52.5,-75 52.5,-72 52.5,-72 52.5,-66 52.5,-66 52.5,-63 55.5,-60 58.5,-60 58.5,-60 100.5,-60 100.5,-60 103.5,-60 106.5,-63 106.5,-66 106.5,-66 106.5,-72 106.5,-72 106.5,-75 103.5,-78 100.5,-78"/>
<text text-anchor="middle" x="79.5" y="-66.8" font-family="Helvetica,sans-Serif" font-size="9.00" fill="#000000">index.tsx</text>
</a>
</g>
</g>
<!-- src/index.tsx&#45;&gt;src/index.css -->
<g id="edge9" class="edge">
<title>src/index.tsx&#45;&gt;src/index.css</title>
<path fill="none" stroke="#000000" stroke-width="2" stroke-opacity="0.200000" d="M106.6861,-68.2814C122.4565,-67.8646 142.4529,-67.336 159.2269,-66.8927"/>
<polygon fill="#000000" fill-opacity="0.200000" stroke="#000000" stroke-width="2" stroke-opacity="0.200000" points="159.3049,-68.9915 165.2473,-66.7336 159.1938,-64.7929 159.3049,-68.9915"/>
</g>
<!-- src/routing.tsx -->
<g id="node13" class="node">
<title>src/routing.tsx</title>
<g id="a_node13"><a xlink:href="src/routing.tsx" xlink:title="routing.tsx">
<path fill="#bbfeff" stroke="#000000" d="M216.5,-105C216.5,-105 169.5,-105 169.5,-105 166.5,-105 163.5,-102 163.5,-99 163.5,-99 163.5,-93 163.5,-93 163.5,-90 166.5,-87 169.5,-87 169.5,-87 216.5,-87 216.5,-87 219.5,-87 222.5,-90 222.5,-93 222.5,-93 222.5,-99 222.5,-99 222.5,-102 219.5,-105 216.5,-105"/>
<text text-anchor="middle" x="193" y="-93.8" font-family="Helvetica,sans-Serif" font-size="9.00" fill="#000000">routing.tsx</text>
</a>
</g>
</g>
<!-- src/index.tsx&#45;&gt;src/routing.tsx -->
<g id="edge10" class="edge">
<title>src/index.tsx&#45;&gt;src/routing.tsx</title>
<path fill="none" stroke="#000000" stroke-width="2" stroke-opacity="0.200000" d="M106.7439,-74.7726C117.9909,-77.2165 131.1449,-80.153 143,-83 147.6604,-84.1192 152.5538,-85.3376 157.3798,-86.565"/>
<polygon fill="#000000" fill-opacity="0.200000" stroke="#000000" stroke-width="2" stroke-opacity="0.200000" points="157.1006,-88.6613 163.4342,-88.1177 158.1441,-84.5929 157.1006,-88.6613"/>
</g>
<!-- src/serviceWorker.ts -->
<g id="node14" class="node">
<title>src/serviceWorker.ts</title>
<g id="a_node14"><a xlink:href="src/serviceWorker.ts" xlink:title="serviceWorker.ts">
<path fill="#ddfeff" stroke="#000000" d="M229,-135C229,-135 157,-135 157,-135 154,-135 151,-132 151,-129 151,-129 151,-123 151,-123 151,-120 154,-117 157,-117 157,-117 229,-117 229,-117 232,-117 235,-120 235,-123 235,-123 235,-129 235,-129 235,-132 232,-135 229,-135"/>
<text text-anchor="middle" x="193" y="-123.8" font-family="Helvetica,sans-Serif" font-size="9.00" fill="#000000">serviceWorker.ts</text>
</a>
</g>
</g>
<!-- src/index.tsx&#45;&gt;src/serviceWorker.ts -->
<g id="edge11" class="edge">
<title>src/index.tsx&#45;&gt;src/serviceWorker.ts</title>
<path fill="none" stroke="#000000" stroke-width="2" stroke-opacity="0.200000" d="M106.5038,-68.8626C119.0468,-70.1862 133.2963,-73.8736 143,-83 152.4278,-91.8669 142.1492,-101.557 151,-111 151.6619,-111.7062 152.3592,-112.3791 153.0871,-113.0204"/>
<polygon fill="#000000" fill-opacity="0.200000" stroke="#000000" stroke-width="2" stroke-opacity="0.200000" points="152.1948,-114.969 158.2792,-116.8103 154.671,-111.5766 152.1948,-114.969"/>
</g>
<!-- src/react&#45;app&#45;env.d.ts -->
<g id="node12" class="node">
<title>src/react&#45;app&#45;env.d.ts</title>
<g id="a_node12"><a xlink:href="src/react-app-env.d.ts" xlink:title="react&#45;app&#45;env.d.ts">
<path fill="#ccffcc" stroke="#000000" d="M118.5,-41C118.5,-41 40.5,-41 40.5,-41 37.5,-41 34.5,-38 34.5,-35 34.5,-35 34.5,-29 34.5,-29 34.5,-26 37.5,-23 40.5,-23 40.5,-23 118.5,-23 118.5,-23 121.5,-23 124.5,-26 124.5,-29 124.5,-29 124.5,-35 124.5,-35 124.5,-38 121.5,-41 118.5,-41"/>
<text text-anchor="middle" x="79.5" y="-29.8" font-family="Helvetica,sans-Serif" font-size="9.00" fill="#000000">react&#45;app&#45;env.d.ts</text>
</a>
</g>
</g>
<!-- src/routing.tsx&#45;&gt;src/App.tsx -->
<g id="edge12" class="edge">
<title>src/routing.tsx&#45;&gt;src/App.tsx</title>
<path fill="none" stroke="#000000" stroke-width="2" stroke-opacity="0.200000" d="M222.7289,-94.9507C229.91,-94.6973 237.6274,-94.4249 244.9505,-94.1665"/>
<polygon fill="#000000" fill-opacity="0.200000" stroke="#000000" stroke-width="2" stroke-opacity="0.200000" points="245.0665,-96.2638 250.9887,-93.9533 244.9183,-92.0664 245.0665,-96.2638"/>
</g>
<!-- src/routing.tsx&#45;&gt;src/auth/Auth.js -->
<g id="edge13" class="edge">
<title>src/routing.tsx&#45;&gt;src/auth/Auth.js</title>
<path fill="none" stroke="#000000" stroke-width="2" stroke-opacity="0.200000" d="M222.8436,-102.4406C227.4026,-104.5375 231.6851,-107.3167 235,-111 245.0956,-122.2175 232.9754,-132.719 243,-144 243.8073,-144.9085 244.6841,-145.7537 245.6159,-146.5399"/>
<polygon fill="#000000" fill-opacity="0.200000" stroke="#000000" stroke-width="2" stroke-opacity="0.200000" points="244.5294,-148.341 250.666,-150.0002 246.9034,-144.8763 244.5294,-148.341"/>
</g>
<!-- src/routing.tsx&#45;&gt;src/components/Callback.tsx -->
<g id="edge14" class="edge">
<title>src/routing.tsx&#45;&gt;src/components/Callback.tsx</title>
<path fill="none" stroke="#000000" stroke-width="2" stroke-opacity="0.200000" d="M220.1747,-105.0318C250.3171,-115.05 298.9565,-131.2158 331.323,-141.9732"/>
<polygon fill="#000000" fill-opacity="0.200000" stroke="#000000" stroke-width="2" stroke-opacity="0.200000" points="330.8129,-144.0166 337.169,-143.9162 332.1376,-140.031 330.8129,-144.0166"/>
</g>
<!-- src/types/CreateTodoRequest.ts -->
<g id="node15" class="node">
<title>src/types/CreateTodoRequest.ts</title>
<g id="a_node15"><a xlink:href="src/types/CreateTodoRequest.ts" xlink:title="CreateTodoRequest.ts">
<path fill="#ccffcc" stroke="#000000" d="M128,-172C128,-172 31,-172 31,-172 28,-172 25,-169 25,-166 25,-166 25,-160 25,-160 25,-157 28,-154 31,-154 31,-154 128,-154 128,-154 131,-154 134,-157 134,-160 134,-160 134,-166 134,-166 134,-169 131,-172 128,-172"/>
<text text-anchor="middle" x="79.5" y="-160.8" font-family="Helvetica,sans-Serif" font-size="9.00" fill="#000000">CreateTodoRequest.ts</text>
</a>
</g>
</g>
<!-- src/types/Todo.ts -->
<g id="node16" class="node">
<title>src/types/Todo.ts</title>
<g id="a_node16"><a xlink:href="src/types/Todo.ts" xlink:title="Todo.ts">
<path fill="#ccffcc" stroke="#000000" d="M100.5,-142C100.5,-142 58.5,-142 58.5,-142 55.5,-142 52.5,-139 52.5,-136 52.5,-136 52.5,-130 52.5,-130 52.5,-127 55.5,-124 58.5,-124 58.5,-124 100.5,-124 100.5,-124 103.5,-124 106.5,-127 106.5,-130 106.5,-130 106.5,-136 106.5,-136 106.5,-139 103.5,-142 100.5,-142"/>
<text text-anchor="middle" x="79.5" y="-130.8" font-family="Helvetica,sans-Serif" font-size="9.00" fill="#000000">Todo.ts</text>
</a>
</g>
</g>
<!-- src/types/UpdateTodoRequest.ts -->
<g id="node17" class="node">
<title>src/types/UpdateTodoRequest.ts</title>
<g id="a_node17"><a xlink:href="src/types/UpdateTodoRequest.ts" xlink:title="UpdateTodoRequest.ts">
<path fill="#ccffcc" stroke="#000000" d="M129,-112C129,-112 30,-112 30,-112 27,-112 24,-109 24,-106 24,-106 24,-100 24,-100 24,-97 27,-94 30,-94 30,-94 129,-94 129,-94 132,-94 135,-97 135,-100 135,-100 135,-106 135,-106 135,-109 132,-112 129,-112"/>
<text text-anchor="middle" x="79.5" y="-100.8" font-family="Helvetica,sans-Serif" font-size="9.00" fill="#000000">UpdateTodoRequest.ts</text>
</a>
</g>
</g>
</g>
</svg>
